# xmcd CD database file
#
# Track frame offsets:
#	150
#	3190
#	32752
#	62300
#	85287
#	108022
#	121762
#	158682
#
# Disc length: 2262 seconds
#
# Revision: 0
# Processed by: cddbd v1.5.1PL2 Copyright (c) Steve Scherf et al.
# Submitted via: CDex 1.51
#
DISCID=4a08d408
DTITLE=Aki Takase - ABC
DYEAR=1987
DGENRE=Jazz
TTITLE0=I Hear Your Music
TTITLE1=Dohke
TTITLE2=Down Dance
TTITLE3=Arishihi
TTITLE4=ABC
TTITLE5=Subconscious Lee
TTITLE6=Silent Night
TTITLE7=Jan 19th (dedicated to my mother)
EXTD=YEAR: 1987
EXTT0=
EXTT1=
EXTT2=
EXTT3=
EXTT4=
EXTT5=
EXTT6=
EXTT7=
PLAYORDER=
